<?xml version="1.0" standalone="no"?>
<!DOCTYPE svg PUBLIC "-//W3C//DTD SVG 20010904//EN"
 "http://www.w3.org/TR/2001/REC-SVG-20010904/DTD/svg10.dtd">
<svg version="1.0" xmlns="http://www.w3.org/2000/svg"
 width="260.000000pt" height="260.000000pt" viewBox="0 0 260.000000 260.000000"
 preserveAspectRatio="xMidYMid meet">
<metadata>
Created by potrace 1.11, written by Peter Selinger 2001-2013
</metadata>
<g transform="translate(0.000000,260.000000) scale(0.100000,-0.100000)"
fill="#000000" stroke="none">
<path d="M1216 2436 c6 -16 5 -17 -16 -6 -15 8 -20 8 -16 1 4 -6 3 -11 -3 -11
-6 0 -7 -8 -4 -17 6 -16 5 -17 -13 -3 -10 8 -16 11 -12 6 7 -9 -38 -56 -54
-56 -5 0 -6 -5 -2 -11 3 -6 9 -7 13 -3 3 5 13 10 21 12 11 3 12 0 4 -8 -6 -6
-18 -12 -25 -13 -24 -4 -40 -18 -33 -29 4 -7 2 -8 -4 -4 -7 4 -12 2 -12 -4 0
-6 -6 -8 -12 -4 -7 4 -4 -3 7 -17 11 -13 13 -18 5 -12 -10 7 -21 8 -30 3 -8
-5 -18 -6 -24 -3 -5 3 -6 1 -2 -6 4 -6 13 -8 19 -4 7 3 3 -4 -8 -17 -11 -13
-14 -20 -6 -15 9 5 12 3 9 -6 -3 -8 -11 -13 -18 -11 -8 2 -10 -3 -6 -14 6 -14
4 -15 -9 -4 -9 7 -15 9 -14 4 4 -21 -2 -35 -11 -29 -6 4 -9 1 -8 -7 2 -8 -5
-12 -17 -10 -16 2 -17 1 -6 -7 20 -13 24 -44 5 -37 -10 4 -12 2 -7 -7 4 -6 8
-16 8 -22 0 -5 5 -10 12 -10 6 0 15 -3 19 -7 3 -4 -3 -6 -15 -3 -11 2 -21 0
-21 -6 0 -5 6 -9 13 -10 6 0 3 -4 -8 -9 -18 -8 -18 -9 -2 -9 11 -1 17 -6 14
-13 -2 -7 -11 -12 -18 -10 -9 1 -7 -3 4 -12 13 -10 15 -15 5 -18 -11 -4 -11
-8 0 -20 10 -13 10 -18 1 -24 -8 -5 -10 -3 -4 7 5 8 4 10 0 6 -17 -15 -14 -36
3 -30 15 6 15 4 -1 -14 -14 -16 -15 -23 -6 -29 9 -5 7 -11 -7 -22 -18 -13 -18
-14 6 -7 14 4 22 4 17 0 -4 -5 1 -17 10 -27 12 -13 13 -18 4 -16 -7 2 -16 -3
-19 -11 -3 -8 0 -11 7 -7 7 4 9 1 5 -8 -5 -12 -9 -13 -19 -3 -13 13 -9 37 7
37 5 0 6 5 3 10 -3 6 -11 10 -16 10 -6 0 -8 -4 -5 -8 2 -4 1 -14 -4 -22 -5 -9
-5 -19 2 -27 7 -9 7 -17 -1 -26 -6 -8 -7 -17 -3 -22 4 -4 -4 -2 -17 5 -19 10
-22 10 -16 -1 6 -9 3 -11 -8 -6 -9 3 -19 1 -23 -5 -4 -7 -3 -8 4 -4 18 11 14
-10 -5 -25 -11 -10 -14 -10 -9 -1 10 17 -2 15 -21 -3 -8 -8 -20 -12 -26 -8
-16 10 -49 9 -66 -2 -9 -5 -12 -4 -7 3 3 6 1 14 -5 18 -7 4 -9 3 -6 -3 4 -6 0
-13 -8 -17 -8 -3 -15 -12 -15 -20 0 -12 -5 -14 -26 -6 -15 6 -23 6 -19 1 3 -5
1 -12 -5 -16 -5 -3 -10 -1 -10 6 0 8 -5 7 -17 -2 -11 -10 -14 -10 -9 -1 4 7 1
12 -9 12 -9 0 -13 -4 -10 -10 3 -5 1 -10 -4 -10 -6 0 -11 6 -11 13 0 9 -3 8
-9 -2 -7 -11 -9 -11 -14 0 -4 11 -6 11 -6 1 -1 -8 -6 -10 -13 -6 -8 5 -7 0 2
-11 9 -11 10 -16 2 -11 -8 5 -12 1 -13 -11 0 -16 -1 -16 -9 2 -5 11 -9 15 -9
9 -1 -7 -8 -15 -17 -18 -12 -5 -15 -2 -10 11 6 17 5 17 -8 0 -10 -14 -15 -15
-19 -5 -4 8 -6 7 -6 -4 -1 -10 -6 -18 -12 -18 -5 0 -7 5 -3 12 4 7 3 8 -4 4
-7 -4 -12 -13 -12 -21 0 -8 -5 -17 -12 -21 -7 -5 -8 -3 -3 6 6 10 4 12 -9 7
-10 -4 -22 -7 -27 -7 -6 0 -7 -6 -4 -12 4 -7 0 -5 -8 5 -13 16 -15 16 -21 2
-3 -9 -2 -13 4 -10 6 3 10 1 10 -6 0 -7 -9 -9 -23 -6 -22 6 -22 6 -2 -10 14
-11 15 -14 4 -10 -9 3 -22 0 -28 -6 -9 -9 -11 -8 -6 6 4 10 2 17 -4 17 -6 0
-11 -7 -11 -15 0 -8 -4 -15 -10 -15 -5 0 -10 -7 -10 -16 0 -8 -5 -12 -10 -9
-6 4 -7 12 -3 18 5 8 2 8 -9 0 -8 -7 -19 -9 -23 -5 -5 4 -5 1 -1 -6 4 -7 12
-10 17 -7 5 3 6 -1 3 -10 -4 -9 -9 -13 -12 -10 -3 3 -14 -2 -24 -11 -12 -12
-15 -21 -8 -29 7 -9 5 -16 -7 -26 -16 -13 -17 -12 -4 4 7 9 9 17 3 17 -14 0
-23 -28 -12 -35 15 -9 12 -27 -2 -19 -7 4 -5 -2 5 -13 9 -11 14 -23 10 -26 -3
-4 3 -7 15 -7 16 0 22 -6 22 -22 0 -17 3 -19 12 -10 7 7 17 12 23 12 5 0 3 -5
-5 -10 -10 -6 -11 -10 -2 -10 6 0 12 -7 12 -15 0 -8 -5 -15 -12 -15 -6 0 -8
-3 -5 -6 4 -4 13 -1 22 6 12 10 15 10 15 -1 0 -11 2 -11 10 1 9 14 14 7 11
-13 -1 -5 3 -6 9 -2 5 3 10 1 10 -4 0 -6 9 -11 20 -11 11 0 20 -4 20 -9 0 -14
29 -21 36 -9 4 6 3 8 -4 4 -6 -3 -13 -2 -17 3 -3 6 4 8 17 5 13 -3 29 -6 37
-8 8 -1 20 -11 29 -22 13 -18 14 -17 8 11 -5 22 -4 26 4 15 5 -8 10 -24 11
-35 0 -11 3 -14 6 -8 3 10 8 9 20 -2 8 -8 19 -12 25 -9 6 4 24 8 39 10 22 3
29 -1 29 -14 0 -15 -2 -15 -10 -2 -5 8 -10 11 -10 5 0 -5 5 -17 10 -25 5 -8
10 -10 10 -5 0 6 9 11 20 12 13 1 18 -3 14 -10 -3 -7 2 -3 10 7 16 20 16 20
16 0 0 -16 2 -17 10 -4 9 13 10 13 10 0 0 -9 3 -11 8 -5 4 6 13 11 21 13 11 2
12 0 3 -10 -8 -11 -7 -14 8 -14 10 0 17 3 14 7 -2 4 3 10 12 13 8 3 12 2 9 -4
-3 -6 3 -10 14 -10 12 0 21 -6 22 -12 1 -7 5 -2 9 12 5 16 8 19 9 8 1 -22 17
-32 27 -17 4 8 3 9 -4 5 -7 -4 -12 -3 -12 3 0 5 4 12 9 15 11 7 23 -22 15 -35
-3 -5 0 -9 5 -9 6 0 11 7 11 15 0 8 5 15 11 15 6 0 9 -7 6 -15 -4 -8 -1 -17 5
-21 7 -4 8 -3 4 4 -4 7 -1 12 7 12 8 0 13 -9 12 -22 -1 -13 6 -29 16 -36 10
-7 16 -21 14 -32 -2 -11 0 -22 5 -25 5 -3 6 -13 3 -22 -5 -12 -3 -14 8 -8 12
7 12 5 1 -6 -11 -12 -14 -12 -22 1 -6 9 -10 10 -10 3 0 -7 9 -17 21 -23 15 -9
18 -15 9 -25 -8 -9 -8 -15 0 -20 5 -3 10 -12 10 -18 0 -7 -4 -6 -10 3 -8 13
-10 12 -10 -2 0 -10 6 -18 13 -18 7 0 3 -8 -8 -17 -16 -13 -17 -15 -2 -10 19
7 23 -3 6 -20 -16 -16 -2 -34 19 -26 14 6 15 4 4 -9 -9 -11 -10 -18 -2 -23 6
-3 8 -11 5 -16 -3 -5 1 -6 10 -2 15 5 15 3 3 -16 -11 -18 -11 -23 2 -31 13 -9
13 -10 0 -10 -13 0 -13 -2 0 -9 8 -6 18 -7 24 -4 5 3 6 1 2 -6 -4 -6 -11 -9
-16 -6 -5 3 -12 0 -16 -6 -4 -7 -3 -9 4 -5 5 3 13 0 16 -6 5 -10 7 -10 12 0 3
6 10 12 15 12 6 0 8 -4 5 -9 -4 -5 -3 -11 1 -14 5 -2 2 -2 -4 -1 -9 2 -12 -11
-11 -46 1 -27 5 -48 8 -48 18 2 29 -4 34 -18 6 -15 4 -15 -10 -3 -16 13 -16
12 -4 -8 8 -12 19 -19 25 -16 5 3 4 0 -2 -8 -15 -16 -17 -33 -3 -24 6 3 13 -1
16 -9 3 -9 10 -16 16 -16 5 0 6 5 2 12 -4 7 -3 8 5 4 8 -6 9 -12 2 -20 -13
-16 -4 -27 15 -19 8 3 14 0 14 -7 0 -6 6 -8 13 -4 9 5 9 4 0 -6 -8 -9 -9 -19
-2 -32 5 -10 7 -24 3 -30 -4 -6 -3 -8 4 -4 5 3 12 3 15 -1 2 -5 2 -2 1 5 -3 9
1 10 15 3 12 -7 22 -6 31 2 10 9 11 9 5 -2 -5 -9 -4 -12 3 -7 7 4 12 1 12 -6
0 -10 3 -9 9 1 8 13 12 13 27 0 11 -9 15 -9 10 -1 -4 7 -2 12 4 12 6 0 8 4 5
10 -3 5 -1 10 6 10 7 0 21 8 31 17 18 16 19 16 12 -3 -4 -14 -3 -15 4 -6 5 8
13 12 17 10 4 -1 14 7 23 19 10 16 11 23 3 23 -7 0 -9 5 -6 10 4 6 12 7 18 3
7 -4 3 6 -7 22 -18 28 -18 29 -1 15 17 -14 18 -13 12 3 -4 11 -3 16 3 12 6 -3
10 -1 10 5 0 6 4 9 8 6 4 -2 14 5 22 17 12 20 12 21 -3 8 -10 -7 -17 -9 -17
-3 0 5 9 16 21 23 11 8 21 21 22 29 2 8 7 21 11 29 6 10 5 12 -2 7 -7 -4 -12
-2 -12 5 0 6 10 10 23 7 17 -3 23 0 23 13 0 10 -5 15 -11 11 -5 -3 -4 1 2 9
10 12 10 18 0 29 -9 10 -9 11 1 6 7 -5 12 -1 12 9 0 10 -5 14 -12 9 -10 -6
-10 -4 0 7 15 16 16 33 1 23 -8 -4 -8 0 0 15 7 11 14 21 17 21 3 0 2 -5 -2
-12 -4 -7 -3 -8 4 -4 6 4 9 13 6 21 -4 8 -10 13 -14 10 -5 -3 -12 -1 -15 5 -4
6 -1 9 7 8 8 -2 13 6 12 19 -1 13 3 20 7 17 5 -3 7 -9 5 -13 -3 -4 1 -8 8 -8
7 0 13 6 13 13 0 7 -4 11 -9 8 -4 -3 -8 -1 -8 5 0 5 5 13 10 16 8 5 7 12 -2
23 -10 12 -10 14 0 8 6 -4 12 -3 12 1 0 5 -6 15 -12 22 -8 9 -8 11 -2 8 7 -4
14 0 18 8 3 8 0 15 -7 15 -8 0 -6 4 3 10 13 9 8 14 -12 11 -3 0 -5 6 -4 15 2
14 16 18 26 7 3 -4 -1 -3 -9 2 -10 5 -12 4 -7 -4 12 -19 27 -2 16 19 -14 27
-12 34 5 20 13 -11 14 -10 9 4 -3 9 -10 16 -16 16 -5 0 -6 5 -3 11 4 6 13 8
19 6 7 -3 13 1 13 9 0 7 -5 10 -11 7 -6 -4 -5 1 3 10 11 13 11 17 1 17 -8 0
-10 3 -7 6 4 4 13 1 21 -5 11 -9 16 -9 22 0 5 8 3 10 -7 4 -12 -7 -12 -5 -1 6
9 9 15 10 20 3 8 -12 53 -14 46 -2 -3 4 0 8 5 8 6 0 11 5 11 10 0 6 -11 3 -25
-6 -24 -15 -25 -15 -19 0 4 9 9 14 12 12 3 -3 11 -1 19 5 7 6 13 8 13 5 0 -4
10 -2 21 5 15 8 19 8 15 0 -4 -6 0 -11 8 -11 14 0 20 -11 17 -32 -1 -9 27 -4
36 7 4 4 2 5 -4 1 -7 -4 -13 -3 -13 2 0 17 54 31 75 20 13 -8 16 -7 11 1 -9
14 43 12 64 -3 8 -6 4 3 -10 19 l-25 29 35 -24 c19 -13 32 -20 28 -15 -4 4 -3
14 4 22 9 11 7 12 -8 7 -18 -6 -17 -5 1 9 11 9 22 11 23 6 2 -6 11 -4 20 3 12
10 14 10 8 1 -9 -16 6 -17 22 -1 9 9 12 9 12 -2 0 -9 5 -8 16 6 8 10 13 14 10
8 -3 -6 1 -11 9 -11 10 0 11 5 5 17 -7 13 -5 16 8 15 10 0 23 -4 30 -8 8 -6
10 -3 5 10 -3 10 -2 15 2 10 5 -4 18 1 29 10 20 17 20 17 7 1 -7 -10 -9 -18
-3 -18 13 0 24 29 15 43 -4 7 0 7 9 -1 12 -10 18 -10 23 -1 6 8 10 7 16 -2 7
-11 9 -11 9 -1 0 7 4 11 9 8 5 -3 8 2 7 12 0 10 6 16 16 16 10 -1 15 2 12 7
-3 5 -1 9 5 9 6 0 8 7 5 15 -4 8 -11 12 -18 8 -6 -3 -8 -3 -4 2 4 4 3 17 -3
29 -10 20 -10 20 5 2 13 -16 16 -17 16 -4 0 19 24 30 37 17 6 -6 8 1 5 21 -2
16 -9 27 -14 24 -6 -4 -5 3 1 15 10 18 9 20 -5 14 -13 -5 -15 -3 -9 7 6 10 4
12 -8 7 -11 -4 -14 -2 -10 8 3 8 10 12 16 8 6 -3 7 -1 3 6 -4 6 -12 9 -17 6
-5 -4 -9 -1 -9 4 0 6 -5 11 -11 11 -13 0 -40 26 -34 32 3 3 -2 5 -10 5 -9 0
-14 -6 -11 -13 3 -8 0 -16 -6 -20 -7 -4 -8 -3 -4 4 4 7 2 12 -4 12 -7 0 -10 7
-6 15 3 9 -3 19 -14 25 -16 8 -18 8 -14 -5 3 -8 11 -12 17 -8 6 3 7 1 3 -5
-10 -17 -14 -15 -30 16 -8 15 -15 21 -16 14 0 -10 -4 -10 -16 2 -8 9 -20 16
-27 16 -6 0 -3 -6 8 -13 17 -13 17 -14 -1 -12 -26 1 -44 13 -44 28 0 7 4 6 11
-3 7 -10 9 -11 7 -2 -2 8 -7 13 -11 13 -3 0 -20 4 -37 9 -19 5 -28 5 -25 -1 9
-14 -5 -11 -20 5 -8 7 -11 17 -7 21 4 5 1 5 -6 1 -7 -4 -10 -11 -7 -16 3 -5 1
-11 -5 -15 -5 -3 -10 1 -10 9 0 10 -6 13 -17 9 -11 -4 -14 -3 -9 5 4 7 2 12
-4 12 -6 0 -9 4 -6 8 6 11 -36 9 -53 -2 -11 -7 -13 -5 -7 9 5 14 4 16 -7 7
-10 -9 -17 -8 -27 1 -10 9 -11 9 -6 -1 6 -9 0 -11 -26 -7 -18 3 -35 10 -36 16
-2 5 -8 6 -13 3 -6 -3 -2 -12 8 -20 16 -12 14 -12 -14 -2 -17 7 -37 21 -43 32
-10 20 -10 20 -6 -1 2 -13 0 -23 -5 -23 -5 0 -9 9 -9 20 0 12 -6 20 -12 19
-31 -4 -59 2 -53 11 3 6 0 10 -7 10 -8 0 -5 5 5 11 18 10 18 12 -2 30 -12 11
-21 25 -21 32 0 9 -2 9 -8 -1 -6 -8 -9 -2 -9 18 0 20 3 26 9 18 5 -8 8 -9 8
-2 0 6 -7 17 -15 24 -12 10 -13 15 -3 28 10 12 10 16 1 19 -7 3 -13 9 -13 14
0 6 4 8 9 5 5 -3 11 1 14 8 4 10 0 14 -13 11 -11 -2 -22 1 -26 6 -3 5 -2 9 3
8 4 -1 15 -1 23 0 13 1 13 3 1 10 -8 5 -23 8 -33 6 -10 -2 -16 0 -13 5 3 5 14
7 25 5 11 -2 23 1 26 7 4 6 3 9 -2 5 -5 -3 -18 1 -29 10 -20 14 -20 14 -1 29
15 11 16 14 5 14 -12 0 -15 10 -14 40 1 22 -3 40 -8 40 -5 0 -7 13 -5 30 4 23
2 27 -9 19 -7 -6 -11 -15 -8 -19 3 -5 1 -11 -4 -15 -6 -3 -8 3 -6 15 2 11 0
20 -5 20 -5 0 -8 9 -7 19 0 11 5 17 9 15 4 -3 8 0 8 5 0 6 -5 11 -11 11 -8 0
-8 4 -1 13 8 10 5 16 -11 27 -21 12 -21 12 -7 -6 14 -18 14 -18 -5 -3 -11 9
-27 14 -35 11 -16 -5 -15 -4 14 18 12 9 17 10 12 3 -5 -9 -2 -11 9 -7 9 4 15
7 13 8 -2 1 -12 8 -22 16 -16 12 -18 12 -11 1 6 -10 4 -12 -5 -6 -10 6 -10 11
3 20 9 7 14 15 10 18 -10 11 -25 8 -18 -3 3 -5 1 -10 -6 -10 -6 0 -9 8 -6 20
6 22 -8 28 -17 8 -3 -7 -5 -1 -3 14 3 20 0 25 -11 20 -10 -3 -13 -1 -8 6 4 7
1 12 -8 12 -8 0 -18 5 -22 12 -5 7 -3 8 7 3 11 -7 12 -6 2 7 -7 8 -9 18 -5 22
4 4 3 6 -3 5 -5 -2 -20 2 -31 9 -12 6 -24 8 -28 4 -4 -3 -11 0 -16 8 -8 12
-10 11 -10 -4 0 -20 0 -20 -15 0 -14 18 -15 18 -9 0z m93 -44 c-1 -16 -2 -16
-6 0 -3 11 -11 15 -21 12 -14 -5 -14 -4 -2 4 18 13 30 6 29 -16z m-199 -86 c0
-3 -4 -8 -10 -11 -5 -3 -10 -1 -10 4 0 6 5 11 10 11 6 0 10 -2 10 -4z m337
-196 c-2 -23 -10 -17 -12 10 -1 10 2 17 6 14 4 -2 7 -13 6 -24z m427 -496 c20
-8 21 -21 1 -21 -8 0 -12 4 -9 8 2 4 -2 10 -8 12 -7 3 -10 6 -6 6 3 1 13 -2
22 -5z m152 -67 c1 -9 -2 -15 -7 -11 -5 3 -7 9 -4 14 3 4 0 11 -5 13 -6 3 -5
4 1 3 7 -1 13 -10 15 -19z m204 -88 c0 -6 -4 -7 -10 -4 -5 3 -10 11 -10 16 0
6 5 7 10 4 6 -3 10 -11 10 -16z m-1945 1 c3 -5 1 -10 -4 -10 -6 0 -11 5 -11
10 0 6 2 10 4 10 3 0 8 -4 11 -10z m-65 -55 c0 -2 -9 -3 -19 -2 -11 0 -18 5
-15 9 4 6 34 0 34 -7z m1141 -198 c-10 -9 -11 -8 -5 6 3 10 9 15 12 12 3 -3 0
-11 -7 -18z m-821 -51 c0 -2 -6 -9 -14 -15 -11 -9 -16 -9 -22 0 -4 7 -3 9 4 5
6 -3 13 -2 17 4 6 10 15 14 15 6z m420 -391 c-7 -9 -15 -13 -19 -10 -3 3 1 10
9 15 21 14 24 12 10 -5z m20 -45 c0 -5 -2 -10 -4 -10 -3 0 -8 5 -11 10 -3 6
-1 10 4 10 6 0 11 -4 11 -10z m383 -375 c-3 -9 -8 -14 -10 -11 -3 3 -2 9 2 15
9 16 15 13 8 -4z m-56 -9 c0 -11 -12 -13 -50 -7 -5 0 -5 6 -2 11 9 15 52 12
52 -4z m-57 -30 c0 -3 -4 -8 -10 -11 -5 -3 -10 -1 -10 4 0 6 5 11 10 11 6 0
10 -2 10 -4z"/>
<path d="M1520 1976 c7 -7 14 -6 21 1 9 9 7 12 -9 10 -14 -1 -18 -5 -12 -11z"/>
<path d="M1570 1766 c0 -8 4 -17 9 -20 5 -4 7 3 4 14 -6 23 -13 26 -13 6z"/>
<path d="M896 1741 c-4 -5 -2 -12 3 -15 5 -4 12 -2 15 3 4 5 2 12 -3 15 -5 4
-12 2 -15 -3z"/>
<path d="M2280 1321 c-7 -13 -7 -22 0 -26 5 -3 10 -5 11 -3 11 48 7 61 -11 29z"/>
<path d="M423 1149 c-2 -23 3 -25 10 -4 4 8 3 16 -1 19 -4 3 -9 -4 -9 -15z"/>
<path d="M900 1000 c0 -5 5 -10 11 -10 5 0 7 5 4 10 -3 6 -8 10 -11 10 -2 0
-4 -4 -4 -10z"/>
<path d="M905 970 c-4 -6 -11 -7 -17 -4 -7 4 -8 2 -4 -5 6 -9 11 -9 22 0 14
11 18 19 10 19 -3 0 -8 -5 -11 -10z"/>
<path d="M918 883 c7 -3 16 -2 19 1 4 3 -2 6 -13 5 -11 0 -14 -3 -6 -6z"/>
<path d="M1526 738 c3 -5 10 -6 15 -3 13 9 11 12 -6 12 -8 0 -12 -4 -9 -9z"/>
<path d="M1410 419 c0 -5 5 -7 10 -4 6 3 10 8 10 11 0 2 -4 4 -10 4 -5 0 -10
-5 -10 -11z"/>
</g>
</svg>
